<svg width="88" height="88" viewBox="0 0 88 88" fill="none" xmlns="http://www.w3.org/2000/svg">
<circle cx="44" cy="44" r="44" fill="#1664FF"/>
<path d="M49.2329 60V29C49.2329 28.4477 48.7852 28 48.2329 28H39.4627C38.9104 28 38.4627 28.4477 38.4627 29V60M49.2329 60L49.2299 41.0706C49.2298 40.5182 49.6776 40.0704 50.2299 40.0704H59C59.5523 40.0704 60 40.5181 60 41.0704V59C60 59.5523 59.5523 60 59 60H49.2329ZM49.2329 60H38.4627M38.4627 60V50.4366C38.4627 49.8843 38.015 49.4366 37.4627 49.4366H29C28.4477 49.4366 28 49.8843 28 50.4366V59C28 59.5523 28.4477 60 29 60H38.4627Z" stroke="white" stroke-width="3" stroke-linecap="round" stroke-linejoin="round"/>
</svg>
