<svg width="88" height="88" viewBox="0 0 88 88" fill="none" xmlns="http://www.w3.org/2000/svg">
<circle cx="44" cy="44" r="44" fill="#484848"/>
<path d="M44 40V53.3333M38 47.1513C32.1363 48.1402 28 50.5355 28 53.3333C28 57.0152 35.1634 60 44 60C52.8366 60 60 57.0152 60 53.3333C60 50.5355 55.8637 48.1402 50 47.1513M49.3333 33.3333C49.3333 36.2789 46.9455 38.6667 44 38.6667C41.0545 38.6667 38.6667 36.2789 38.6667 33.3333C38.6667 30.3878 41.0545 28 44 28C46.9455 28 49.3333 30.3878 49.3333 33.3333Z" stroke="white" stroke-width="3" stroke-linecap="round" stroke-linejoin="round"/>
</svg>
